<?xml version="1.0" encoding="utf-8"?>
<!-- Generator: Adobe Illustrator 25.2.1, SVG Export Plug-In . SVG Version: 6.00 Build 0)  -->
<svg version="1.1" id="b20546c3-77b3-42b0-9c55-fab326964e98"
	 xmlns="http://www.w3.org/2000/svg" xmlns:xlink="http://www.w3.org/1999/xlink" x="0px" y="0px" viewBox="0 0 1024 1024"
	 style="enable-background:new 0 0 1024 1024;" xml:space="preserve">
<style type="text/css">
	.st0{fill:#60148C;}
	.st1{fill:#FFFFFF;}
</style>
<path class="st0" d="M134.8,0h754.3C963.6,0,1024,61,1024,136.1v751.7c0,75.2-60.4,136.1-134.8,136.1H134.8C60.4,1024,0,963,0,887.9
	V136.1C0,61,60.4,0,134.8,0z"/>
<path class="st1" d="M901.7,390.9c0,0-97.3,28.9-110.3,36.1c-13,7.2-13.7,0-13.7,0v-12c-2.4-28.9-24.3-154.1-29.2-171
	c-4.9-16.9-14.6-7.2-14.6-7.2s-2.4,2.4-21.9,16.9c-19.5,14.5-80.2,65-88.7,74.7c-8.4,9.6-11,0-11,0l-2.4-4.8
	C588,270.5,524.8,179,517.5,167c-7.3-12.1-14.6,7.2-14.6,7.2s-82.7,132.5-87.5,151.7c-4.9,19.3-17,2.4-17,2.4
	c-24.3-28.9-92.4-74.7-107-89.1c-14.6-14.5-17,2.4-17,2.4l-34,190.3l-124-43.3c-21.9-2.4,19.5,166.2,19.5,166.2
	c36.5,144.5,102.1,226.4,184.8,272.2s192.1,28.9,192.1,28.9s170.2,40.9,279.6-106s119.2-337.2,121.6-351.6
	C916.3,383.7,901.7,390.9,901.7,390.9z M529.6,843.7c20.7-20.5,36.5-45.8,36.5-45.8c24.3-45.8,24.3-48.2,19.5-77.1
	c-4.9-28.9-34.1-65-63.2-48.2c-17.2,10-35.1,18.8-53.5,26.5c-26.7-4.8-21.9-26.5-24.3-33.7c-2.4-7.2,2.4-26.5-12.2-33.7
	s-7.3-16.9-7.3-16.9s14.6-12-2.4-12c-17,0-14.6-16.9-14.6-16.9c9.7-33.7-17-26.5-29-40.9s7.2-40.9,31.5-69.8
	c24.3-28.9-14.6-57.8,14.6-144.5s75.4-84.3,75.4-84.3c-14.6,120.4,60.8,207.1,94.8,238.4s55.9,106,55.9,106
	C670.7,764.2,522.3,851,529.6,843.7z"/>
</svg>
