<svg xmlns="http://www.w3.org/2000/svg" xmlns:xlink="http://www.w3.org/1999/xlink" viewBox="0 0 648 648"><defs><style>.cls-1{fill:url(#Degradado_sin_nombre_5);}.cls-2{fill:#00e2c5;}.cls-3,.cls-4{fill:#fff;}.cls-4{stroke:#fff;stroke-miterlimit:10;stroke-width:2px;}.cls-5{fill:#32bbff;}.cls-6{fill:#2c9fd9;}.cls-7{fill:#29cc5e;}.cls-8{fill:#d93f21;}.cls-9{fill:#ffd500;}.cls-10{fill:#fa0;}</style><linearGradient id="Degradado_sin_nombre_5" x1="35.91562" y1="-662.07812" x2="612.07812" y2="-85.91562" gradientTransform="matrix(1, 0, 0, -1, 0, -50)" gradientUnits="userSpaceOnUse"><stop offset="0" stop-color="#6f0383"/><stop offset="1" stop-color="#a221af"/></linearGradient></defs><g id="Capa_2" data-name="Capa 2"><g id="Logo"><path id="Fondo_radius2" data-name="Fondo radius2" class="cls-1" d="M525.3,648H122.7A122.63433,122.63433,0,0,1,0,525.4V122.6A122.63432,122.63432,0,0,1,122.7,0H525.3A122.63434,122.63434,0,0,1,648,122.6V525.3A122.65568,122.65568,0,0,1,525.3,648Z"/><g id="Logo-centrado"><path class="cls-2" d="M239.6,125.5h0a9.24168,9.24168,0,0,1-3.1-5.6c-1.1-26.8,17.5-50.5,43.8-55a7.79547,7.79547,0,0,1,6.3,1.6h0a11.75706,11.75706,0,0,1,2.4,3.1,7.83488,7.83488,0,0,1-4.2,10.2A53.77668,53.77668,0,0,0,252,121C251.1,126.7,244.2,129.2,239.6,125.5Z"/><path class="cls-2" d="M425.6,125.5h0a6.63305,6.63305,0,0,0,3.1-5.6c1.3-26.8-18.5-50.5-46.2-55a7.92519,7.92519,0,0,0-6.4,1.6h0c-4.8,3.8-3.8,11.1,2.3,13.4,18.1,7.1,31.1,22.6,34.3,41.1C413.5,126.7,420.7,129.2,425.6,125.5Z"/><path class="cls-2" d="M347.5,246.3a3.86015,3.86015,0,0,1,2.5,4.8c-2.4,6.7-8.9,9.4-17.1,9.4-8,0-14.7-2.7-17-9.4a4.48457,4.48457,0,0,1-.1-1.1,3.723,3.723,0,0,1,4-3.8h26.7C346.7,246,347.1,246,347.5,246.3Z"/><path class="cls-2" d="M420,230.2a10.5648,10.5648,0,0,1-10.4,10.6h-153a10.19467,10.19467,0,0,1-8.6-4.6,10.33552,10.33552,0,0,1,2.4-14.7c7.2-5.1,20.2-18.1,20.2-44.5V148.5c0-29.1,18.1-54.4,44.5-62.5,0,0,4.2-16.7,17.8-16.7,13.7,0,17.8,16.7,17.8,16.7,26.4,8.2,44.5,33.7,44.5,62.5V177c0,26.4,13.1,39.5,20.2,44.5A10.256,10.256,0,0,1,420,230.2Zm-87.3-31.6a16.62922,16.62922,0,0,0,7.1-13.9,21.08258,21.08258,0,0,0-2.4-9.7,23.64381,23.64381,0,0,0-7.4-7.4c-3.2-2.3-7.9-4-13.6-5.6-5.5-1.7-9.7-3.2-12-5.1-2.4-1.7-3.8-4-3.8-6.4a9.45914,9.45914,0,0,1,3.2-7.4,15.7601,15.7601,0,0,1,9.5-2.7c4.6,0,7.9.9,10.2,3.1,2.3,2,3.2,4.6,3.5,7.6a4.16367,4.16367,0,0,0,2.5,3.8c3.5,1.7,8.9.9,9.8-2.3a3.08492,3.08492,0,0,0,.1-.9,19.20588,19.20588,0,0,0-3.2-10.7,21.58922,21.58922,0,0,0-9.1-7.9,30.00253,30.00253,0,0,0-13.4-2.7c-7.6,0-13.7,1.9-18.5,5.5-4.7,3.8-7.2,8.5-7.2,14.3,0,6.7,3.2,11.9,9.8,15.9,3.5,2.3,8,4,13.7,5.8,5.8,1.9,9.8,3.5,12,5.1,2.3,1.7,3.2,4.2,3.2,7.4a8.81885,8.81885,0,0,1-3.2,7.1c-2.1,1.7-5.5,2.7-9.8,2.7-5,0-8.9-1.1-11.6-3.2-2.7-2.3-3.8-5.5-4-9.4-1.1-7.1-12.4-6.7-12.4,0s1.1,8.5,3.8,11.9a26.06225,26.06225,0,0,0,10.2,8,35.30942,35.30942,0,0,0,14.3,2.7C321.8,203.8,328,202.1,332.7,198.6ZM384.1,139a4.34085,4.34085,0,0,0-8.2-2.8l-32.8,62a4.34085,4.34085,0,0,0,8.2,2.8l32.8-62Z"/><g id="Yapefy"><path id="y" class="cls-3" d="M156.8,496.1c-7.1,20.9-29.3,65.5-59.7,69.3A20.627,20.627,0,0,1,86,563.1c-22.5-12.8-17-37.2-5.4-56.6a116.93582,116.93582,0,0,1,58.8-48.6c26.9-10.4,364.8-59.6,441.5-66.7,5.5-.5,10.6-.3,13.7,4.2a18.88046,18.88046,0,0,1,2.7,8.6,7.67476,7.67476,0,0,1-7.1,7.4c-31.7,3.8-391.9,51.7-453.1,72.1-12,1.6-45.4,33.1-46.8,53.4a6.8511,6.8511,0,0,0,6.3,7.4,8.26207,8.26207,0,0,0,4.6-1.1c10.4-7.2,23.2-27.3,26.9-36.6,10.4-18.5,26.4-78.9,30.2-91-8.9,9.7-19.6,20.4-33.1,14.3-22.1-9.9,3.1-69.7,3.1-69.7s4-12.3,2.7-14.7c-1.9-4-.5-8.2,2.5-8.5,7.1-.7,22.8-.9,14.7,20.9-5.4,14.3-7.4,18.5-9.8,33.3-3.2,20.2,7.6,16.9,16.9,6.3,3.8-4.6,8.9-14.7,11.1-20.2,6-15.5,10.4-29.2,14.6-43.3,2.3-7.4,15.3-12.4,21.7-11.5a2.795,2.795,0,0,1,2.5,2,8.35571,8.35571,0,0,1,.1,4.7C195.1,358.9,167.1,465.3,156.8,496.1Z"/><path id="a" class="cls-3" d="M275.7,324.2c-3.5,19.1-7.6,32.3-10.6,51.8-3.8,23.6,2.5,23.6,16.9,2.7,1.7-3.8,7.4,3.1,6.4,8.2-1.6,8.9-6.8,15.8-11.9,21-3.2,2.3-23.2,23.6-33.3-1.7-4.8,10.7-12.2,17.7-25.3,17.5-15.5-.3-20.1-21.6-18.5-37.4,2-16.2,9.4-36.3,16.9-49.4,4-7.2,9.9-13.7,16.2-17.3,8.5-4.8,18.5-4.7,24.4,3.8.7-2.4,2.4-9.1,5.8-9.1C270.8,313.4,275.6,316.2,275.7,324.2Zm-43.6,21.6c-6.7,10.2-18.7,35.8-8.5,49.7a6.55651,6.55651,0,0,0,7.2,2.4c4.7-1.7,8.2-7.4,10.7-13.9,3.2-8.2,12.7-33.7,11.1-43.5a4.65,4.65,0,0,0-4.7-4c-5.6-.2-13,4.9-15.8,9.3Z"/><path id="p" class="cls-3" d="M290.8,314.1a3.55082,3.55082,0,0,1,2.7-2.7c4-.9,9.7-1.7,13.7,2.4.9.9.5,1.7.3,3.8l-.9,5.1c5.8-8.6,12.7-19.3,29.2-15.8,11.5,4.2,13.4,24.8,12,39.4-3.2,22.8-11.6,55-28.7,64.2a26.90891,26.90891,0,0,1-29.7-6c-2.4,21-7.2,41.9-10.4,59.2-.9,4.6-6.3,7.5-9.5,7.9-5.4-.9-7.4-3.5-6.4-10.4,5.1-40.3,15.5-87.7,23.6-127.4C287.5,329.3,289.7,318.5,290.8,314.1Zm25.3,70.8c9.1-15.9,20.2-58,3.8-56-10.4,1.1-20.6,37.1-23.8,56.4-.7,4.2,2.7,7.6,7.2,7.6,3.1.2,9-1.4,12.8-8Z"/><path id="e" class="cls-3" d="M410.4,366.4c2.7,2.3,4.7,8.2,4.8,12.3a6.81246,6.81246,0,0,1-1.6,4.6,82.3904,82.3904,0,0,1-24.2,20.9c-20.2,8.6-34.3,6.4-39.6-14.6-2.7-11.5,2.4-36.7,6-49.7a16.008,16.008,0,0,1,1.7-4.6c8-16.9,16.5-31.7,31.5-36.7,21.6-7.2,31.1,6.4,29.1,22.4-3.1,20.6-25.7,40.4-45.4,42.2-11.6,42.6,28.5,13.1,33.1,3.8A3.45486,3.45486,0,0,1,410.4,366.4Zm-11-48.6c-.9-1.1-2.3-2.3-3.5-2.4a4.06436,4.06436,0,0,0-3.2.9c-5.4,3.5-14.3,19.3-15.5,26.4a.8114.8114,0,0,0,.5.9h.1c10.4-.3,23.6-13.1,22.5-24.4A6.79532,6.79532,0,0,0,399.4,317.8Z"/><path id="y-2" class="cls-3" d="M491,437.4c-14.5,7.6-39.8,33.7-41,51.3a6.851,6.851,0,0,0,6.3,7.4,8.26156,8.26156,0,0,0,4.6-1.1c10.4-7.2,23.2-27.3,26.9-36.6,10.4-18.5,26.7-78.7,30.4-91-8.9,9.7-19.6,20.4-33.1,14.3-22.1-9.9,3.1-69.7,3.1-69.7s4-12.3,2.7-14.7c-1.9-4-.5-8.2,2.5-8.5,7.1-.7,22.8-.9,14.7,20.9-5.4,14.3-7.4,18.5-9.8,33.3-3.5,22.1,9.7,15.9,19.3,3.1,3.5-4.7,5.4-10.4,7.5-15.8,5.5-14.6,11.1-30.6,15.9-45.1,2.7-7.4,15.3-12.4,21.7-11.5a2.795,2.795,0,0,1,2.5,2,8.35553,8.35553,0,0,1,.1,4.7c-10.7,30.2-38.8,136.6-49.2,167.4-7.1,20.9-29.3,65.5-59.7,69.3a20.627,20.627,0,0,1-11.1-2.3c-22.5-12.8-17-37.2-5.4-56.6a114.86486,114.86486,0,0,1,56.4-47.6,8.2199,8.2199,0,0,1,6.7.1c4.2,2.3,4,7.2.1,14.3A28.91752,28.91752,0,0,1,491,437.4Z"/><path id="f" class="cls-4" d="M437.4,323.3c.1-.3,0-.5-.3-.7h-.3a36.88847,36.88847,0,0,0-5.8.9c-4-1.1-4.7-6.7-4.2-9.7.3-2.5,2-7.9,5.1-9.1a21.29363,21.29363,0,0,1,2.7-.7c2.3-.3,4.2-.5,6.4-.7.1,0,.1,0,.1-.1h0c2.3-8.9,4.8-24.8,9.1-32.8,5.8-10.4,15.3-18.5,27.3-20a19.56936,19.56936,0,0,1,6.4.3c9.5,2,16.2,11.9,15.3,21a4.36171,4.36171,0,0,1-4,3.8,24.615,24.615,0,0,1-4.7-.1,12.25078,12.25078,0,0,1-3.5-1.6,20.18344,20.18344,0,0,1-2.4-2.7,7.02368,7.02368,0,0,0-2.7-2,13.94437,13.94437,0,0,0-5.4-.9,12.88341,12.88341,0,0,0-8.9,4.7,15.58688,15.58688,0,0,0-3.1,5.8c-2,6.4-3.2,15.8-4.7,22.5,0,.1,0,.1.1.1,4.2-.3,8.2-.7,12.3-.9,5-.3,6.7,13,3.2,16.7a8.21217,8.21217,0,0,1-3.5,2c-4.8.3-9.5.5-13.9.9a1.64462,1.64462,0,0,0-1.6,1.6c-.9,6-7.4,65.5-7.9,69.4-.9,7.4-20.1,5.8-18.9-2.4Z"/></g></g><circle class="cls-3" cx="538.48137" cy="108.11111" r="81.47384"/><path class="cls-5" d="M572.6941,88.66168c-12.17023-6.807-31.70381-17.73745-62.00191-34.70207a7.305,7.305,0,0,0-6.42355-.83852l51.983,51.983Z"/><path class="cls-5" d="M504.26864,53.12109a7.46912,7.46912,0,0,0-1.10514.47225,7.30979,7.30979,0,0,0-3.89018,6.49906v90.02344a7.30884,7.30884,0,0,0,3.89018,6.49885,7.56224,7.56224,0,0,0,1.10391.47348l51.98426-51.984Z"/><path class="cls-5" d="M556.25167,105.10412l-51.98426,51.98406a7.22913,7.22913,0,0,0,6.42478-.83955c29.38264-16.45328,48.69606-27.25421,61.00707-34.11912.34273-.19255.67851-.38079,1.0104-.5672Z"/><path class="cls-6" d="M499.27332,105.10412v45.01172a7.30884,7.30884,0,0,0,3.89018,6.49885,7.56224,7.56224,0,0,0,1.10391.47348l51.98426-51.984Z"/><path class="cls-7" d="M510.69219,53.95961a7.32862,7.32862,0,0,0-7.52869-.36606l52.29917,52.29937L572.6939,88.66168C560.52387,81.85468,540.99029,70.92423,510.69219,53.95961Z"/><path class="cls-8" d="M555.46307,104.31553,503.1635,156.61469a7.27775,7.27775,0,0,0,7.52869-.36606c29.38264-16.45328,48.69606-27.25421,61.00707-34.11912.34273-.19255.67851-.38079,1.0104-.5672Z"/><path class="cls-9" d="M594.40012,105.10412a7.29023,7.29023,0,0,0-3.75309-6.40739s-4.66508-2.60293-18.96435-10.601l-17.00841,17.00841,17.025,17.02518c14.14233-7.94058,18.94757-10.618,18.94757-10.618A7.28947,7.28947,0,0,0,594.40012,105.10412Z"/><path class="cls-10" d="M590.647,111.51151a7.29023,7.29023,0,0,0,3.75309-6.40739H554.67428l17.025,17.02518C585.84179,114.18892,590.647,111.51151,590.647,111.51151Z"/></g></g></svg>