<svg xmlns="http://www.w3.org/2000/svg" xmlns:xlink="http://www.w3.org/1999/xlink" viewBox="0 0 1801.76428 1801.76428"><defs><style>.cls-1{fill:url(#Degradado_sin_nombre_177);}.cls-2{fill:url(#Degradado_sin_nombre_147);}.cls-3{fill:#ffffff;}.cls-4{fill:url(#Degradado_sin_nombre_134);}</style><radialGradient id="Degradado_sin_nombre_177" cx="900.88214" cy="900.88214" r="900.88214" gradientTransform="translate(0 -1801.76428) scale(1 3)" gradientUnits="userSpaceOnUse"><stop offset="0" stop-color="#1f1f1f"/><stop offset="1"/></radialGradient><radialGradient id="Degradado_sin_nombre_147" cx="865.2468" cy="1147.17671" r="238.99164" gradientUnits="userSpaceOnUse"><stop offset="0.70812" stop-color="#ffffff"/><stop offset="1" stop-color="#ccc"/></radialGradient><linearGradient id="Degradado_sin_nombre_134" x1="468.52609" y1="1332.33263" x2="1442.98776" y2="357.87097" gradientUnits="userSpaceOnUse"><stop offset="0.55735" stop-color="#f06e05"/><stop offset="1" stop-color="#ffffff"/></linearGradient></defs><g id="Capa_2" data-name="Capa 2"><g id="Capa_1-2" data-name="Capa 1"><rect class="cls-1" width="1801.76428" height="1801.76428" rx="307.60259"/><polygon class="cls-2" points="672.488 1424.806 672.488 968.324 970.736 1219.581 970.736 929.964 1058.005 869.547 1058.005 1404.667 761.675 1147.177 761.675 1362.472 672.488 1424.806"/><path class="cls-3" d="M1057.09938,618.217c5.532-3.56982,11.26124-7.48389,17.12647-11.77246,5.33228-3.89893,10.3335-7.78272,15.011-11.6001a361.08008,361.08008,0,0,1,203.0498,243.95215c-33.28174-8.37305-161.63037-44.68311-215.72754-159.46338A245.93223,245.93223,0,0,1,1057.09938,618.217Z"/><path class="cls-4" d="M1112.12261,146.86837c14.52008,11.44092,94.12628,76.40527,101.28143,184.05969,6.60926,99.441-52.8255,171.71277-73.4906,196.84119-22.47631,27.33081-49.614,49.9646-59.8518,58.22217-6.40674,5.16748-34.82135,28.29-84.1482,53.926A764.72742,764.72742,0,0,1,892.03,684.43966C805.67158,714.386,715.751,736.2874,658.37617,749.03824a147.95753,147.95753,0,0,0-52.36612,22.9241C552.96538,808.833,451.35615,895.12161,418.73356,1038.925c-43.96533,193.80347,64.22014,373.70728,189.90291,467.45337,30.38946,22.66724,172.92779,123.18579,358.81781,88.62842,128.87011-23.957,210.94043-100.259,242.45123-133.5083,28.13135-29.68311,84.082-90.26587,105.75391-188.84668,19.81127-90.11719.53393-164.48462-10.71241-198.668a470.42717,470.42717,0,0,0-66.22253-123.68018c-35.11585-46.854-68.85455-73.05615-111.0202-107.12451-44.87836-36.2605-110.41632-90.41162-191.85053-162.148A605.90511,605.90511,0,0,0,1057.09942,618.217c6.42584,19.47168,18.68622,47.31617,43.2185,78.26319,7.25214,9.14843,26.31244,31.95263,100.426,83.398,22.05359,15.30835,53.03955,35.96923,91.543,58.91845a472.88742,472.88742,0,0,0-46.71668-93.36694c-50.82007-78.4248-114.38867-125.14575-156.33337-150.5852a180.52034,180.52034,0,0,0,32.12109-25.7417q3.89877-3.93933,7.32031-7.85669c24.48627,12.91381,278.06751,152.29419,315.43543,448.4956,3.98865,31.61646,29.41675,264.21753-138.67969,452.813-143.04852,160.49292-371.4826,227.67749-559.48309,174.32105-94.81192-26.9087-159.58624-78.86866-186.98133-101.2815-34.24942-28.02051-150.28372-125.78589-191.13584-298.08081-51.05193-215.3125,53.14489-387.43579,81.57649-430.85425C541.72881,665.67745,670.654,605.875,722.57818,585.10592a17.00075,17.00075,0,0,0,5.871-4.76074c7.07361-9.54566.73645-26.35352-1.97559-45.88013C723.22741,511.09249,581.693,387.08749,560.91726,271.52267,634.93072,369.558,802.43481,409.81088,802.43481,409.81088A559.99311,559.99311,0,0,1,1028.37054,493.563c19.79162-16.05322,76.43878-66.233,99.33374-153.87012C1152.28258,245.61251,1122.02886,169.357,1112.12261,146.86837Z"/></g></g></svg>