<svg xmlns="http://www.w3.org/2000/svg" xmlns:xlink="http://www.w3.org/1999/xlink" viewBox="0 0 500 500"><defs><linearGradient id="Degradado_sin_nombre_18" x1="92.44" y1="101.81" x2="92.44" y2="412.39" gradientUnits="userSpaceOnUse"><stop offset="0" stop-color="#1ba2a8"/><stop offset="1" stop-color="#23a2ab"/></linearGradient><linearGradient id="Degradado_sin_nombre_23" x1="81.89" y1="77.33" x2="404.39" y2="399.83" gradientUnits="userSpaceOnUse"><stop offset="0" stop-color="#18747f"/><stop offset="1" stop-color="#0b6dc4"/></linearGradient><linearGradient id="Degradado_sin_nombre_26" x1="286.18" y1="206.46" x2="405.8" y2="116.34" gradientUnits="userSpaceOnUse"><stop offset="0" stop-color="#1fa4ab"/><stop offset="1" stop-color="#24abb1"/></linearGradient></defs><g id="Capa_2" data-name="Capa 2"><g id="Capa_1-2" data-name="Capa 1"><path d="M440.4,500H59.6A59.6,59.6,0,0,1,0,440.4V59.6A59.6,59.6,0,0,1,59.6,0H440.4A59.6,59.6,0,0,1,500,59.6V440.4A59.6,59.6,0,0,1,440.4,500Z" style="fill:#fff"/><path d="M130.4,206.5V405.4a7,7,0,0,1-11,5.7L58.6,368.9a9.5,9.5,0,0,1-4.1-7.8V106.8a5,5,0,0,1,5-5Z" style="fill:url(#Degradado_sin_nombre_18)"/><path d="M54.5,106.8,235,348.2a163.1,163.1,0,0,0,22.5,24.5l3.9,3.4a125.7,125.7,0,0,0,180-14.1l15-18.1a5.1,5.1,0,0,0-.1-6.5l-42.9-48.7a5,5,0,0,0-7.8.3l-14.1,18.6a52.7,52.7,0,0,1-74,10.1l-1.8-1.4a93.1,93.1,0,0,1-18.6-19L154.8,103.8a5.1,5.1,0,0,0-4-2H59.5a5,5,0,0,0-5,5" style="fill:url(#Degradado_sin_nombre_23)"/><path d="M240.3,184.4l60.8,84.4V219.4a53.7,53.7,0,0,1,99.2-23.5,9.4,9.4,0,0,0,14.8,1.7c13.6-13.7,24.7-26.6,37.9-40.2a5.9,5.9,0,0,0,.6-7.7c-26.3-36.3-68.7-56.6-113.5-51.2a125.7,125.7,0,0,0-100.9,76.8A9.5,9.5,0,0,0,240.3,184.4Z" style="fill:url(#Degradado_sin_nombre_26)"/></g></g></svg>