<svg xmlns="http://www.w3.org/2000/svg" xmlns:xlink="http://www.w3.org/1999/xlink" viewBox="0 0 798.03846 798.03846"><defs><style>.cls-1{fill:url(#Degradado_sin_nombre_109);}.cls-2{fill:#ff500d;}.cls-3{fill:#00fff2;}</style><linearGradient id="Degradado_sin_nombre_109" x1="215.77016" y1="104.80423" x2="582.26829" y2="693.23423" gradientUnits="userSpaceOnUse"><stop offset="0.02702" stop-color="#3b3b3b"/><stop offset="0.04283" stop-color="#333"/><stop offset="0.10025" stop-color="#1d1d1d"/><stop offset="0.16244" stop-color="#0d0d0d"/><stop offset="0.2322" stop-color="#030303"/><stop offset="0.32522"/></linearGradient></defs><g id="Capa_2" data-name="Capa 2"><g id="Capa_1-2" data-name="Capa 1"><ellipse class="cls-1" cx="399.01923" cy="399.01923" rx="346.22131" ry="346.7037"/><path class="cls-2" d="M690.98452,371.213v2.49087a53.12158,53.12158,0,0,0,53.12157,53.12159h0C729.94407,605.0176,580.8531,745.20665,399.01923,745.20665c-162.11692,0-298.20683-111.4349-335.85081-261.88578a45.34532,45.34532,0,0,1,43.88546-56.49542h.00006v-2.49086A53.1216,53.1216,0,0,0,53.93235,371.213H53.9323C68.09438,193.02086,217.18535,52.83181,399.01923,52.83181A344.62414,344.62414,0,0,1,566.925,96.2039a44.67326,44.67326,0,0,0,63.06758-22.59678l0-.00006C524.19971-1.61911,380.14777-26.547,232.71656,33.70314A363.61163,363.61163,0,0,0,33.98337,232.0323C-108.15791,578.359,219.95718,906.3387,566.294,763.93685A362.93267,362.93267,0,0,0,763.63616,567.02362c70.93715-171.74251,26.14644-339.083-79.26425-446.91356l-6.80448,17.01113a70.996,70.996,0,0,0,7.25135,66.48269A344.49446,344.49446,0,0,1,734.91,314.87743,45.31156,45.31156,0,0,1,690.98457,371.213Z"/><path class="cls-3" d="M546.6372,247.96325c-19.44544,19.76433-100.44413,19.76433-93.192,0-11.27844,19.76433-14.54244,23.02833-8.38782,8.38782-6.15462,18.66686-6.15462,242.62816,0,257.6759q-9.23193-22.359.29535.29535c-6.19326-15.08639,49.29134-15.08639,63.83712,0,8.73014-15.08639,27.599,3.78247,48.48915,48.48914-20.89016-21.43076-20.89016,22.359,0,50.38172-20.89016-23.99641-24.15416-20.73241-8.38782,8.38782-19.79268-29.12023-306.51413-29.12023-329.88381,0,23.09288-29.12023,23.01209-29.498-.12081-.56485,23.38549-29.04633,157.46631-89.15153,154.265-69.15329,3.20128-19.99824,3.20128-276.84493,0-295.51179,3.20127,14.64051-.06273,11.37651-8.38782-8.38782,4.29875,19.76433-76.69994,19.76433-93.192,0,13.511,19.76433,10.83032,17.94939-7.7879-5.27266,17.51108,20.45421-1.5166-27.115-21.89206-54.73016,18.45995,22.8264,21.98672,17.61726,7.78789-11.503,19.35649,29.12023,296.13981,29.12023,318.44963,0-17.15216,29.12023-13.6254,34.32937,7.78789,11.503-23.3288,27.61517-42.35648,75.18437-21.89206,54.73016C532.85354,265.91264,530.17281,267.72758,546.6372,247.96325Z"/></g></g></svg>