<svg xmlns="http://www.w3.org/2000/svg" viewBox="0 0 607.85437 977.38679"><defs><style>.cls-1{fill:#333940;}.cls-2{fill:#212121;}.cls-3{fill:#dce1eb;}.cls-4{fill:#7e8596;}.cls-5{fill:#ffa547;}.cls-6{fill:#636978;}.cls-7{fill:#ffd15e;}</style></defs><g id="Capa_2" data-name="Capa 2"><g id="Capa_3" data-name="Capa 3"><path class="cls-1" d="M303.42718.02315v674c12.24375.08667,78.69294-.65094,132.05555-54,51.07794-51.06495,53.73455-113.91059,54-127V175.68982c-.52118-12.91622-4.39264-75.06114-56-124.66667C380.3642-.0349,315.81238-.18763,303.42718.02315Z"/><path class="cls-2" d="M489.48273,420.02315h-119a28.91319,28.91319,0,0,1,0-57.2963l119-.037"/><path class="cls-2" d="M489.48273,233.02315h-119a28.91319,28.91319,0,0,1,0-57.2963l119-.037"/><path class="cls-2" d="M489.48273,327.02315h-119a28.91319,28.91319,0,0,1,0-57.2963l119-.037"/><path class="cls-3" d="M489.50366,324.57869H581.1864a29.73242,29.73242,0,0,1,0,59.14816H489.50366"/><polygon class="cls-1" points="303.427 818.912 386.594 818.912 386.594 754.163 303.427 767.245 303.427 818.912"/><path class="cls-4" d="M303.42718,977.38679H492.742a34.22435,34.22435,0,0,0,19.25922-8.54882c7.518-6.78278,9.70378-14.0185,10.37042-17.77778s0-17.38275,0-26.07409c-.44134-9.09662-3.15124-42.3963-29.80774-70.902-30.54028-32.65887-69.943-34.889-77.74786-35.17206H303.42718V977.38679"/><path class="cls-5" d="M523.89941,383.63426v109.5c-.43762,15.97952-4.1795,89.69223-64.1922,149.92654-62.98651,63.21912-141.3695,64.82978-156.28,64.85126v59.33332c18.62494.01971,116.717-1.747,196.12964-80.77778,78.35144-77.97467,81.47278-174.39007,81.70368-193.40741q-.03708-54.66667-.0741-109.33334"/><path class="cls-6" d="M304.42718.02315v674c-12.24374.08667-78.69293-.65094-132.05554-54-51.07794-51.06495-53.73456-113.91059-54-127V175.68982c.52118-12.91622,4.39264-75.06114,56-124.66667C227.49017-.0349,292.042-.18763,304.42718.02315Z"/><path class="cls-1" d="M118.37164,420.02315h119a28.91319,28.91319,0,0,0,0-57.2963l-119-.037"/><path class="cls-1" d="M118.37164,233.02315h119a28.91319,28.91319,0,0,0,0-57.2963l-119-.037"/><path class="cls-1" d="M118.37164,327.02315h119a28.91319,28.91319,0,0,0,0-57.2963l-119-.037"/><path class="cls-3" d="M118.35071,324.57869H26.668a29.73242,29.73242,0,0,0,0,59.14816h91.68274"/><polygon class="cls-6" points="304.427 818.912 221.261 818.912 221.261 754.163 304.427 767.245 304.427 818.912"/><path class="cls-3" d="M304.42718,977.38679H115.11236A34.22435,34.22435,0,0,1,95.85315,968.838c-7.518-6.78278-9.70379-14.0185-10.37042-17.77778s0-17.38275,0-26.07409c.44134-9.09662,3.15124-42.3963,29.80773-70.902,30.54029-32.65887,69.94306-34.889,77.74787-35.17206H304.42718V977.38679"/><path class="cls-7" d="M83.955,383.63426v109.5c.43763,15.97952,4.17951,89.69223,64.1922,149.92654,62.98652,63.21912,141.36951,64.82978,156.28,64.85126v59.33332c-18.62494.01971-116.717-1.747-196.12964-80.77778C29.9461,608.49293,26.82477,512.07753,26.59387,493.06019q.03708-54.66667.0741-109.33334"/></g></g></svg>